<?xml version="1.0" encoding="utf-8" standalone="no"?>
<!DOCTYPE svg PUBLIC "-//W3C//DTD SVG 1.1//EN"
  "http://www.w3.org/Graphics/SVG/1.1/DTD/svg11.dtd">
<svg xmlns:xlink="http://www.w3.org/1999/xlink" width="460.8pt" height="345.6pt" viewBox="0 0 460.8 345.6" xmlns="http://www.w3.org/2000/svg" version="1.1">
 <metadata>
  <rdf:RDF xmlns:dc="http://purl.org/dc/elements/1.1/" xmlns:cc="http://creativecommons.org/ns#" xmlns:rdf="http://www.w3.org/1999/02/22-rdf-syntax-ns#">
   <cc:Work>
    <dc:type rdf:resource="http://purl.org/dc/dcmitype/StillImage"/>
    <dc:date>2023-08-21T12:05:32.551093</dc:date>
    <dc:format>image/svg+xml</dc:format>
    <dc:creator>
     <cc:Agent>
      <dc:title>Matplotlib v3.7.2, https://matplotlib.org/</dc:title>
     </cc:Agent>
    </dc:creator>
   </cc:Work>
  </rdf:RDF>
 </metadata>
 <defs>
  <style type="text/css">*{stroke-linejoin: round; stroke-linecap: butt}</style>
 </defs>
 <g id="figure_1">
  <g id="patch_1">
   <path d="M 0 345.6 
L 460.8 345.6 
L 460.8 0 
L 0 0 
z
" style="fill: #ffffff"/>
  </g>
  <g id="axes_1">
   <g id="patch_2">
    <path d="M 57.6 307.584 
L 414.72 307.584 
L 414.72 41.472 
L 57.6 41.472 
z
" style="fill: #ffffff"/>
   </g>
   <g id="patch_3">
    <path d="M 57.6 307.584 
L 64.7424 307.584 
L 64.7424 221.590603 
L 57.6 221.590603 
z
" clip-path="url(#pc7bec95704)" style="fill: #1f77b4; fill-opacity: 0.75; stroke: #000000; stroke-width: 0.66256; stroke-linejoin: miter"/>
   </g>
   <g id="patch_4">
    <path d="M 64.7424 307.584 
L 71.8848 307.584 
L 71.8848 233.373482 
L 64.7424 233.373482 
z
" clip-path="url(#pc7bec95704)" style="fill: #1f77b4; fill-opacity: 0.75; stroke: #000000; stroke-width: 0.66256; stroke-linejoin: miter"/>
   </g>
   <g id="patch_5">
    <path d="M 71.8848 307.584 
L 79.0272 307.584 
L 79.0272 236.508376 
L 71.8848 236.508376 
z
" clip-path="url(#pc7bec95704)" style="fill: #1f77b4; fill-opacity: 0.75; stroke: #000000; stroke-width: 0.66256; stroke-linejoin: miter"/>
   </g>
   <g id="patch_6">
    <path d="M 79.0272 307.584 
L 86.1696 307.584 
L 86.1696 263.209029 
L 79.0272 263.209029 
z
" clip-path="url(#pc7bec95704)" style="fill: #1f77b4; fill-opacity: 0.75; stroke: #000000; stroke-width: 0.66256; stroke-linejoin: miter"/>
   </g>
   <g id="patch_7">
    <path d="M 86.1696 307.584 
L 93.312 307.584 
L 93.312 272.235363 
L 86.1696 272.235363 
z
" clip-path="url(#pc7bec95704)" style="fill: #1f77b4; fill-opacity: 0.75; stroke: #000000; stroke-width: 0.66256; stroke-linejoin: miter"/>
   </g>
   <g id="patch_8">
    <path d="M 93.312 307.584 
L 100.4544 307.584 
L 100.4544 281.369797 
L 93.312 281.369797 
z
" clip-path="url(#pc7bec95704)" style="fill: #1f77b4; fill-opacity: 0.75; stroke: #000000; stroke-width: 0.66256; stroke-linejoin: miter"/>
   </g>
   <g id="patch_9">
    <path d="M 100.4544 307.584 
L 107.5968 307.584 
L 107.5968 285.31544 
L 100.4544 285.31544 
z
" clip-path="url(#pc7bec95704)" style="fill: #1f77b4; fill-opacity: 0.75; stroke: #000000; stroke-width: 0.66256; stroke-linejoin: miter"/>
   </g>
   <g id="patch_10">
    <path d="M 107.5968 307.584 
L 114.7392 307.584 
L 114.7392 292.612177 
L 107.5968 292.612177 
z
" clip-path="url(#pc7bec95704)" style="fill: #1f77b4; fill-opacity: 0.75; stroke: #000000; stroke-width: 0.66256; stroke-linejoin: miter"/>
   </g>
   <g id="patch_11">
    <path d="M 114.7392 307.584 
L 121.8816 307.584 
L 121.8816 294.341774 
L 114.7392 294.341774 
z
" clip-path="url(#pc7bec95704)" style="fill: #1f77b4; fill-opacity: 0.75; stroke: #000000; stroke-width: 0.66256; stroke-linejoin: miter"/>
   </g>
   <g id="patch_12">
    <path d="M 121.8816 307.584 
L 129.024 307.584 
L 129.024 295.530871 
L 121.8816 295.530871 
z
" clip-path="url(#pc7bec95704)" style="fill: #1f77b4; fill-opacity: 0.75; stroke: #000000; stroke-width: 0.66256; stroke-linejoin: miter"/>
   </g>
   <g id="patch_13">
    <path d="M 129.024 307.584 
L 136.1664 307.584 
L 136.1664 298.773866 
L 129.024 298.773866 
z
" clip-path="url(#pc7bec95704)" style="fill: #1f77b4; fill-opacity: 0.75; stroke: #000000; stroke-width: 0.66256; stroke-linejoin: miter"/>
   </g>
   <g id="patch_14">
    <path d="M 136.1664 307.584 
L 143.3088 307.584 
L 143.3088 300.719662 
L 136.1664 300.719662 
z
" clip-path="url(#pc7bec95704)" style="fill: #1f77b4; fill-opacity: 0.75; stroke: #000000; stroke-width: 0.66256; stroke-linejoin: miter"/>
   </g>
   <g id="patch_15">
    <path d="M 143.3088 307.584 
L 150.4512 307.584 
L 150.4512 302.23306 
L 143.3088 302.23306 
z
" clip-path="url(#pc7bec95704)" style="fill: #1f77b4; fill-opacity: 0.75; stroke: #000000; stroke-width: 0.66256; stroke-linejoin: miter"/>
   </g>
   <g id="patch_16">
    <path d="M 150.4512 307.584 
L 157.5936 307.584 
L 157.5936 302.827608 
L 150.4512 302.827608 
z
" clip-path="url(#pc7bec95704)" style="fill: #1f77b4; fill-opacity: 0.75; stroke: #000000; stroke-width: 0.66256; stroke-linejoin: miter"/>
   </g>
   <g id="patch_17">
    <path d="M 157.5936 307.584 
L 164.736 307.584 
L 164.736 303.314058 
L 157.5936 303.314058 
z
" clip-path="url(#pc7bec95704)" style="fill: #1f77b4; fill-opacity: 0.75; stroke: #000000; stroke-width: 0.66256; stroke-linejoin: miter"/>
   </g>
   <g id="patch_18">
    <path d="M 164.736 307.584 
L 171.8784 307.584 
L 171.8784 304.341006 
L 164.736 304.341006 
z
" clip-path="url(#pc7bec95704)" style="fill: #1f77b4; fill-opacity: 0.75; stroke: #000000; stroke-width: 0.66256; stroke-linejoin: miter"/>
   </g>
   <g id="patch_19">
    <path d="M 171.8784 307.584 
L 179.0208 307.584 
L 179.0208 303.746457 
L 171.8784 303.746457 
z
" clip-path="url(#pc7bec95704)" style="fill: #1f77b4; fill-opacity: 0.75; stroke: #000000; stroke-width: 0.66256; stroke-linejoin: miter"/>
   </g>
   <g id="patch_20">
    <path d="M 179.0208 307.584 
L 186.1632 307.584 
L 186.1632 305.097704 
L 179.0208 305.097704 
z
" clip-path="url(#pc7bec95704)" style="fill: #1f77b4; fill-opacity: 0.75; stroke: #000000; stroke-width: 0.66256; stroke-linejoin: miter"/>
   </g>
   <g id="patch_21">
    <path d="M 186.1632 307.584 
L 193.3056 307.584 
L 193.3056 305.043655 
L 186.1632 305.043655 
z
" clip-path="url(#pc7bec95704)" style="fill: #1f77b4; fill-opacity: 0.75; stroke: #000000; stroke-width: 0.66256; stroke-linejoin: miter"/>
   </g>
   <g id="patch_22">
    <path d="M 193.3056 307.584 
L 200.448 307.584 
L 200.448 305.205804 
L 193.3056 305.205804 
z
" clip-path="url(#pc7bec95704)" style="fill: #1f77b4; fill-opacity: 0.75; stroke: #000000; stroke-width: 0.66256; stroke-linejoin: miter"/>
   </g>
   <g id="patch_23">
    <path d="M 200.448 307.584 
L 207.5904 307.584 
L 207.5904 305.422004 
L 200.448 305.422004 
z
" clip-path="url(#pc7bec95704)" style="fill: #1f77b4; fill-opacity: 0.75; stroke: #000000; stroke-width: 0.66256; stroke-linejoin: miter"/>
   </g>
   <g id="patch_24">
    <path d="M 207.5904 307.584 
L 214.7328 307.584 
L 214.7328 306.340852 
L 207.5904 306.340852 
z
" clip-path="url(#pc7bec95704)" style="fill: #1f77b4; fill-opacity: 0.75; stroke: #000000; stroke-width: 0.66256; stroke-linejoin: miter"/>
   </g>
   <g id="patch_25">
    <path d="M 214.7328 307.584 
L 221.8752 307.584 
L 221.8752 306.394902 
L 214.7328 306.394902 
z
" clip-path="url(#pc7bec95704)" style="fill: #1f77b4; fill-opacity: 0.75; stroke: #000000; stroke-width: 0.66256; stroke-linejoin: miter"/>
   </g>
   <g id="patch_26">
    <path d="M 221.8752 307.584 
L 229.0176 307.584 
L 229.0176 306.719202 
L 221.8752 306.719202 
z
" clip-path="url(#pc7bec95704)" style="fill: #1f77b4; fill-opacity: 0.75; stroke: #000000; stroke-width: 0.66256; stroke-linejoin: miter"/>
   </g>
   <g id="patch_27">
    <path d="M 229.0176 307.584 
L 236.16 307.584 
L 236.16 306.881351 
L 229.0176 306.881351 
z
" clip-path="url(#pc7bec95704)" style="fill: #1f77b4; fill-opacity: 0.75; stroke: #000000; stroke-width: 0.66256; stroke-linejoin: miter"/>
   </g>
   <g id="patch_28">
    <path d="M 236.16 307.584 
L 243.3024 307.584 
L 243.3024 306.557052 
L 236.16 306.557052 
z
" clip-path="url(#pc7bec95704)" style="fill: #1f77b4; fill-opacity: 0.75; stroke: #000000; stroke-width: 0.66256; stroke-linejoin: miter"/>
   </g>
   <g id="patch_29">
    <path d="M 243.3024 307.584 
L 250.4448 307.584 
L 250.4448 306.935401 
L 243.3024 306.935401 
z
" clip-path="url(#pc7bec95704)" style="fill: #1f77b4; fill-opacity: 0.75; stroke: #000000; stroke-width: 0.66256; stroke-linejoin: miter"/>
   </g>
   <g id="patch_30">
    <path d="M 250.4448 307.584 
L 257.5872 307.584 
L 257.5872 306.881351 
L 250.4448 306.881351 
z
" clip-path="url(#pc7bec95704)" style="fill: #1f77b4; fill-opacity: 0.75; stroke: #000000; stroke-width: 0.66256; stroke-linejoin: miter"/>
   </g>
   <g id="patch_31">
    <path d="M 257.5872 307.584 
L 264.7296 307.584 
L 264.7296 307.097551 
L 257.5872 307.097551 
z
" clip-path="url(#pc7bec95704)" style="fill: #1f77b4; fill-opacity: 0.75; stroke: #000000; stroke-width: 0.66256; stroke-linejoin: miter"/>
   </g>
   <g id="patch_32">
    <path d="M 264.7296 307.584 
L 271.872 307.584 
L 271.872 307.259701 
L 264.7296 307.259701 
z
" clip-path="url(#pc7bec95704)" style="fill: #1f77b4; fill-opacity: 0.75; stroke: #000000; stroke-width: 0.66256; stroke-linejoin: miter"/>
   </g>
   <g id="patch_33">
    <path d="M 271.872 307.584 
L 279.0144 307.584 
L 279.0144 307.31375 
L 271.872 307.31375 
z
" clip-path="url(#pc7bec95704)" style="fill: #1f77b4; fill-opacity: 0.75; stroke: #000000; stroke-width: 0.66256; stroke-linejoin: miter"/>
   </g>
   <g id="patch_34">
    <path d="M 279.0144 307.584 
L 286.1568 307.584 
L 286.1568 307.151601 
L 279.0144 307.151601 
z
" clip-path="url(#pc7bec95704)" style="fill: #1f77b4; fill-opacity: 0.75; stroke: #000000; stroke-width: 0.66256; stroke-linejoin: miter"/>
   </g>
   <g id="patch_35">
    <path d="M 286.1568 307.584 
L 293.2992 307.584 
L 293.2992 306.989451 
L 286.1568 306.989451 
z
" clip-path="url(#pc7bec95704)" style="fill: #1f77b4; fill-opacity: 0.75; stroke: #000000; stroke-width: 0.66256; stroke-linejoin: miter"/>
   </g>
   <g id="patch_36">
    <path d="M 293.2992 307.584 
L 300.4416 307.584 
L 300.4416 307.31375 
L 293.2992 307.31375 
z
" clip-path="url(#pc7bec95704)" style="fill: #1f77b4; fill-opacity: 0.75; stroke: #000000; stroke-width: 0.66256; stroke-linejoin: miter"/>
   </g>
   <g id="patch_37">
    <path d="M 300.4416 307.584 
L 307.584 307.584 
L 307.584 307.42185 
L 300.4416 307.42185 
z
" clip-path="url(#pc7bec95704)" style="fill: #1f77b4; fill-opacity: 0.75; stroke: #000000; stroke-width: 0.66256; stroke-linejoin: miter"/>
   </g>
   <g id="patch_38">
    <path d="M 307.584 307.584 
L 314.7264 307.584 
L 314.7264 307.3678 
L 307.584 307.3678 
z
" clip-path="url(#pc7bec95704)" style="fill: #1f77b4; fill-opacity: 0.75; stroke: #000000; stroke-width: 0.66256; stroke-linejoin: miter"/>
   </g>
   <g id="patch_39">
    <path d="M 314.7264 307.584 
L 321.8688 307.584 
L 321.8688 307.3678 
L 314.7264 307.3678 
z
" clip-path="url(#pc7bec95704)" style="fill: #1f77b4; fill-opacity: 0.75; stroke: #000000; stroke-width: 0.66256; stroke-linejoin: miter"/>
   </g>
   <g id="patch_40">
    <path d="M 321.8688 307.584 
L 329.0112 307.584 
L 329.0112 307.52995 
L 321.8688 307.52995 
z
" clip-path="url(#pc7bec95704)" style="fill: #1f77b4; fill-opacity: 0.75; stroke: #000000; stroke-width: 0.66256; stroke-linejoin: miter"/>
   </g>
   <g id="patch_41">
    <path d="M 329.0112 307.584 
L 336.1536 307.584 
L 336.1536 307.4759 
L 329.0112 307.4759 
z
" clip-path="url(#pc7bec95704)" style="fill: #1f77b4; fill-opacity: 0.75; stroke: #000000; stroke-width: 0.66256; stroke-linejoin: miter"/>
   </g>
   <g id="patch_42">
    <path d="M 336.1536 307.584 
L 343.296 307.584 
L 343.296 307.42185 
L 336.1536 307.42185 
z
" clip-path="url(#pc7bec95704)" style="fill: #1f77b4; fill-opacity: 0.75; stroke: #000000; stroke-width: 0.66256; stroke-linejoin: miter"/>
   </g>
   <g id="patch_43">
    <path d="M 343.296 307.584 
L 350.4384 307.584 
L 350.4384 307.4759 
L 343.296 307.4759 
z
" clip-path="url(#pc7bec95704)" style="fill: #1f77b4; fill-opacity: 0.75; stroke: #000000; stroke-width: 0.66256; stroke-linejoin: miter"/>
   </g>
   <g id="patch_44">
    <path d="M 350.4384 307.584 
L 357.5808 307.584 
L 357.5808 307.4759 
L 350.4384 307.4759 
z
" clip-path="url(#pc7bec95704)" style="fill: #1f77b4; fill-opacity: 0.75; stroke: #000000; stroke-width: 0.66256; stroke-linejoin: miter"/>
   </g>
   <g id="patch_45">
    <path d="M 357.5808 307.584 
L 364.7232 307.584 
L 364.7232 307.52995 
L 357.5808 307.52995 
z
" clip-path="url(#pc7bec95704)" style="fill: #1f77b4; fill-opacity: 0.75; stroke: #000000; stroke-width: 0.66256; stroke-linejoin: miter"/>
   </g>
   <g id="patch_46">
    <path d="M 364.7232 307.584 
L 371.8656 307.584 
L 371.8656 307.52995 
L 364.7232 307.52995 
z
" clip-path="url(#pc7bec95704)" style="fill: #1f77b4; fill-opacity: 0.75; stroke: #000000; stroke-width: 0.66256; stroke-linejoin: miter"/>
   </g>
   <g id="patch_47">
    <path d="M 371.8656 307.584 
L 379.008 307.584 
L 379.008 307.52995 
L 371.8656 307.52995 
z
" clip-path="url(#pc7bec95704)" style="fill: #1f77b4; fill-opacity: 0.75; stroke: #000000; stroke-width: 0.66256; stroke-linejoin: miter"/>
   </g>
   <g id="patch_48">
    <path d="M 379.008 307.584 
L 386.1504 307.584 
L 386.1504 307.52995 
L 379.008 307.52995 
z
" clip-path="url(#pc7bec95704)" style="fill: #1f77b4; fill-opacity: 0.75; stroke: #000000; stroke-width: 0.66256; stroke-linejoin: miter"/>
   </g>
   <g id="patch_49">
    <path d="M 386.1504 307.584 
L 393.2928 307.584 
L 393.2928 307.42185 
L 386.1504 307.42185 
z
" clip-path="url(#pc7bec95704)" style="fill: #1f77b4; fill-opacity: 0.75; stroke: #000000; stroke-width: 0.66256; stroke-linejoin: miter"/>
   </g>
   <g id="patch_50">
    <path d="M 393.2928 307.584 
L 400.4352 307.584 
L 400.4352 307.4759 
L 393.2928 307.4759 
z
" clip-path="url(#pc7bec95704)" style="fill: #1f77b4; fill-opacity: 0.75; stroke: #000000; stroke-width: 0.66256; stroke-linejoin: miter"/>
   </g>
   <g id="patch_51">
    <path d="M 400.4352 307.584 
L 407.5776 307.584 
L 407.5776 307.584 
L 400.4352 307.584 
z
" clip-path="url(#pc7bec95704)" style="fill: #1f77b4; fill-opacity: 0.75; stroke: #000000; stroke-width: 0.66256; stroke-linejoin: miter"/>
   </g>
   <g id="patch_52">
    <path d="M 57.6 307.584 
L 64.7424 307.584 
L 64.7424 54.144 
L 57.6 54.144 
z
" clip-path="url(#pc7bec95704)" style="fill: #ff7f0e; fill-opacity: 0.75; stroke: #000000; stroke-width: 0.71424; stroke-linejoin: miter"/>
   </g>
   <g id="patch_53">
    <path d="M 64.7424 307.584 
L 71.8848 307.584 
L 71.8848 188.187762 
L 64.7424 188.187762 
z
" clip-path="url(#pc7bec95704)" style="fill: #ff7f0e; fill-opacity: 0.75; stroke: #000000; stroke-width: 0.71424; stroke-linejoin: miter"/>
   </g>
   <g id="patch_54">
    <path d="M 71.8848 307.584 
L 79.0272 307.584 
L 79.0272 267.695171 
L 71.8848 267.695171 
z
" clip-path="url(#pc7bec95704)" style="fill: #ff7f0e; fill-opacity: 0.75; stroke: #000000; stroke-width: 0.71424; stroke-linejoin: miter"/>
   </g>
   <g id="patch_55">
    <path d="M 79.0272 307.584 
L 86.1696 307.584 
L 86.1696 290.017781 
L 79.0272 290.017781 
z
" clip-path="url(#pc7bec95704)" style="fill: #ff7f0e; fill-opacity: 0.75; stroke: #000000; stroke-width: 0.71424; stroke-linejoin: miter"/>
   </g>
   <g id="patch_56">
    <path d="M 86.1696 307.584 
L 93.312 307.584 
L 93.312 298.557666 
L 86.1696 298.557666 
z
" clip-path="url(#pc7bec95704)" style="fill: #ff7f0e; fill-opacity: 0.75; stroke: #000000; stroke-width: 0.71424; stroke-linejoin: miter"/>
   </g>
   <g id="patch_57">
    <path d="M 93.312 307.584 
L 100.4544 307.584 
L 100.4544 302.611409 
L 93.312 302.611409 
z
" clip-path="url(#pc7bec95704)" style="fill: #ff7f0e; fill-opacity: 0.75; stroke: #000000; stroke-width: 0.71424; stroke-linejoin: miter"/>
   </g>
   <g id="patch_58">
    <path d="M 100.4544 307.584 
L 107.5968 307.584 
L 107.5968 305.584154 
L 100.4544 305.584154 
z
" clip-path="url(#pc7bec95704)" style="fill: #ff7f0e; fill-opacity: 0.75; stroke: #000000; stroke-width: 0.71424; stroke-linejoin: miter"/>
   </g>
   <g id="patch_59">
    <path d="M 107.5968 307.584 
L 114.7392 307.584 
L 114.7392 306.286802 
L 107.5968 306.286802 
z
" clip-path="url(#pc7bec95704)" style="fill: #ff7f0e; fill-opacity: 0.75; stroke: #000000; stroke-width: 0.71424; stroke-linejoin: miter"/>
   </g>
   <g id="patch_60">
    <path d="M 114.7392 307.584 
L 121.8816 307.584 
L 121.8816 307.205651 
L 114.7392 307.205651 
z
" clip-path="url(#pc7bec95704)" style="fill: #ff7f0e; fill-opacity: 0.75; stroke: #000000; stroke-width: 0.71424; stroke-linejoin: miter"/>
   </g>
   <g id="patch_61">
    <path d="M 121.8816 307.584 
L 129.024 307.584 
L 129.024 307.31375 
L 121.8816 307.31375 
z
" clip-path="url(#pc7bec95704)" style="fill: #ff7f0e; fill-opacity: 0.75; stroke: #000000; stroke-width: 0.71424; stroke-linejoin: miter"/>
   </g>
   <g id="patch_62">
    <path d="M 129.024 307.584 
L 136.1664 307.584 
L 136.1664 307.3678 
L 129.024 307.3678 
z
" clip-path="url(#pc7bec95704)" style="fill: #ff7f0e; fill-opacity: 0.75; stroke: #000000; stroke-width: 0.71424; stroke-linejoin: miter"/>
   </g>
   <g id="patch_63">
    <path d="M 136.1664 307.584 
L 143.3088 307.584 
L 143.3088 307.42185 
L 136.1664 307.42185 
z
" clip-path="url(#pc7bec95704)" style="fill: #ff7f0e; fill-opacity: 0.75; stroke: #000000; stroke-width: 0.71424; stroke-linejoin: miter"/>
   </g>
   <g id="patch_64">
    <path d="M 143.3088 307.584 
L 150.4512 307.584 
L 150.4512 307.3678 
L 143.3088 307.3678 
z
" clip-path="url(#pc7bec95704)" style="fill: #ff7f0e; fill-opacity: 0.75; stroke: #000000; stroke-width: 0.71424; stroke-linejoin: miter"/>
   </g>
   <g id="patch_65">
    <path d="M 150.4512 307.584 
L 157.5936 307.584 
L 157.5936 307.4759 
L 150.4512 307.4759 
z
" clip-path="url(#pc7bec95704)" style="fill: #ff7f0e; fill-opacity: 0.75; stroke: #000000; stroke-width: 0.71424; stroke-linejoin: miter"/>
   </g>
   <g id="patch_66">
    <path d="M 157.5936 307.584 
L 164.736 307.584 
L 164.736 307.52995 
L 157.5936 307.52995 
z
" clip-path="url(#pc7bec95704)" style="fill: #ff7f0e; fill-opacity: 0.75; stroke: #000000; stroke-width: 0.71424; stroke-linejoin: miter"/>
   </g>
   <g id="patch_67">
    <path d="M 164.736 307.584 
L 171.8784 307.584 
L 171.8784 307.584 
L 164.736 307.584 
z
" clip-path="url(#pc7bec95704)" style="fill: #ff7f0e; fill-opacity: 0.75; stroke: #000000; stroke-width: 0.71424; stroke-linejoin: miter"/>
   </g>
   <g id="patch_68">
    <path d="M 171.8784 307.584 
L 179.0208 307.584 
L 179.0208 307.584 
L 171.8784 307.584 
z
" clip-path="url(#pc7bec95704)" style="fill: #ff7f0e; fill-opacity: 0.75; stroke: #000000; stroke-width: 0.71424; stroke-linejoin: miter"/>
   </g>
   <g id="patch_69">
    <path d="M 179.0208 307.584 
L 186.1632 307.584 
L 186.1632 307.52995 
L 179.0208 307.52995 
z
" clip-path="url(#pc7bec95704)" style="fill: #ff7f0e; fill-opacity: 0.75; stroke: #000000; stroke-width: 0.71424; stroke-linejoin: miter"/>
   </g>
   <g id="patch_70">
    <path d="M 186.1632 307.584 
L 193.3056 307.584 
L 193.3056 307.584 
L 186.1632 307.584 
z
" clip-path="url(#pc7bec95704)" style="fill: #ff7f0e; fill-opacity: 0.75; stroke: #000000; stroke-width: 0.71424; stroke-linejoin: miter"/>
   </g>
   <g id="patch_71">
    <path d="M 193.3056 307.584 
L 200.448 307.584 
L 200.448 307.584 
L 193.3056 307.584 
z
" clip-path="url(#pc7bec95704)" style="fill: #ff7f0e; fill-opacity: 0.75; stroke: #000000; stroke-width: 0.71424; stroke-linejoin: miter"/>
   </g>
   <g id="patch_72">
    <path d="M 200.448 307.584 
L 207.5904 307.584 
L 207.5904 307.584 
L 200.448 307.584 
z
" clip-path="url(#pc7bec95704)" style="fill: #ff7f0e; fill-opacity: 0.75; stroke: #000000; stroke-width: 0.71424; stroke-linejoin: miter"/>
   </g>
   <g id="patch_73">
    <path d="M 207.5904 307.584 
L 214.7328 307.584 
L 214.7328 307.584 
L 207.5904 307.584 
z
" clip-path="url(#pc7bec95704)" style="fill: #ff7f0e; fill-opacity: 0.75; stroke: #000000; stroke-width: 0.71424; stroke-linejoin: miter"/>
   </g>
   <g id="patch_74">
    <path d="M 214.7328 307.584 
L 221.8752 307.584 
L 221.8752 307.584 
L 214.7328 307.584 
z
" clip-path="url(#pc7bec95704)" style="fill: #ff7f0e; fill-opacity: 0.75; stroke: #000000; stroke-width: 0.71424; stroke-linejoin: miter"/>
   </g>
   <g id="patch_75">
    <path d="M 221.8752 307.584 
L 229.0176 307.584 
L 229.0176 307.584 
L 221.8752 307.584 
z
" clip-path="url(#pc7bec95704)" style="fill: #ff7f0e; fill-opacity: 0.75; stroke: #000000; stroke-width: 0.71424; stroke-linejoin: miter"/>
   </g>
   <g id="patch_76">
    <path d="M 229.0176 307.584 
L 236.16 307.584 
L 236.16 307.584 
L 229.0176 307.584 
z
" clip-path="url(#pc7bec95704)" style="fill: #ff7f0e; fill-opacity: 0.75; stroke: #000000; stroke-width: 0.71424; stroke-linejoin: miter"/>
   </g>
   <g id="patch_77">
    <path d="M 236.16 307.584 
L 243.3024 307.584 
L 243.3024 307.584 
L 236.16 307.584 
z
" clip-path="url(#pc7bec95704)" style="fill: #ff7f0e; fill-opacity: 0.75; stroke: #000000; stroke-width: 0.71424; stroke-linejoin: miter"/>
   </g>
   <g id="patch_78">
    <path d="M 243.3024 307.584 
L 250.4448 307.584 
L 250.4448 307.584 
L 243.3024 307.584 
z
" clip-path="url(#pc7bec95704)" style="fill: #ff7f0e; fill-opacity: 0.75; stroke: #000000; stroke-width: 0.71424; stroke-linejoin: miter"/>
   </g>
   <g id="patch_79">
    <path d="M 250.4448 307.584 
L 257.5872 307.584 
L 257.5872 307.584 
L 250.4448 307.584 
z
" clip-path="url(#pc7bec95704)" style="fill: #ff7f0e; fill-opacity: 0.75; stroke: #000000; stroke-width: 0.71424; stroke-linejoin: miter"/>
   </g>
   <g id="patch_80">
    <path d="M 257.5872 307.584 
L 264.7296 307.584 
L 264.7296 307.584 
L 257.5872 307.584 
z
" clip-path="url(#pc7bec95704)" style="fill: #ff7f0e; fill-opacity: 0.75; stroke: #000000; stroke-width: 0.71424; stroke-linejoin: miter"/>
   </g>
   <g id="patch_81">
    <path d="M 264.7296 307.584 
L 271.872 307.584 
L 271.872 307.584 
L 264.7296 307.584 
z
" clip-path="url(#pc7bec95704)" style="fill: #ff7f0e; fill-opacity: 0.75; stroke: #000000; stroke-width: 0.71424; stroke-linejoin: miter"/>
   </g>
   <g id="patch_82">
    <path d="M 271.872 307.584 
L 279.0144 307.584 
L 279.0144 307.584 
L 271.872 307.584 
z
" clip-path="url(#pc7bec95704)" style="fill: #ff7f0e; fill-opacity: 0.75; stroke: #000000; stroke-width: 0.71424; stroke-linejoin: miter"/>
   </g>
   <g id="patch_83">
    <path d="M 279.0144 307.584 
L 286.1568 307.584 
L 286.1568 307.584 
L 279.0144 307.584 
z
" clip-path="url(#pc7bec95704)" style="fill: #ff7f0e; fill-opacity: 0.75; stroke: #000000; stroke-width: 0.71424; stroke-linejoin: miter"/>
   </g>
   <g id="patch_84">
    <path d="M 286.1568 307.584 
L 293.2992 307.584 
L 293.2992 307.584 
L 286.1568 307.584 
z
" clip-path="url(#pc7bec95704)" style="fill: #ff7f0e; fill-opacity: 0.75; stroke: #000000; stroke-width: 0.71424; stroke-linejoin: miter"/>
   </g>
   <g id="patch_85">
    <path d="M 293.2992 307.584 
L 300.4416 307.584 
L 300.4416 307.584 
L 293.2992 307.584 
z
" clip-path="url(#pc7bec95704)" style="fill: #ff7f0e; fill-opacity: 0.75; stroke: #000000; stroke-width: 0.71424; stroke-linejoin: miter"/>
   </g>
   <g id="patch_86">
    <path d="M 300.4416 307.584 
L 307.584 307.584 
L 307.584 307.584 
L 300.4416 307.584 
z
" clip-path="url(#pc7bec95704)" style="fill: #ff7f0e; fill-opacity: 0.75; stroke: #000000; stroke-width: 0.71424; stroke-linejoin: miter"/>
   </g>
   <g id="patch_87">
    <path d="M 307.584 307.584 
L 314.7264 307.584 
L 314.7264 307.584 
L 307.584 307.584 
z
" clip-path="url(#pc7bec95704)" style="fill: #ff7f0e; fill-opacity: 0.75; stroke: #000000; stroke-width: 0.71424; stroke-linejoin: miter"/>
   </g>
   <g id="patch_88">
    <path d="M 314.7264 307.584 
L 321.8688 307.584 
L 321.8688 307.584 
L 314.7264 307.584 
z
" clip-path="url(#pc7bec95704)" style="fill: #ff7f0e; fill-opacity: 0.75; stroke: #000000; stroke-width: 0.71424; stroke-linejoin: miter"/>
   </g>
   <g id="patch_89">
    <path d="M 321.8688 307.584 
L 329.0112 307.584 
L 329.0112 307.584 
L 321.8688 307.584 
z
" clip-path="url(#pc7bec95704)" style="fill: #ff7f0e; fill-opacity: 0.75; stroke: #000000; stroke-width: 0.71424; stroke-linejoin: miter"/>
   </g>
   <g id="patch_90">
    <path d="M 329.0112 307.584 
L 336.1536 307.584 
L 336.1536 307.584 
L 329.0112 307.584 
z
" clip-path="url(#pc7bec95704)" style="fill: #ff7f0e; fill-opacity: 0.75; stroke: #000000; stroke-width: 0.71424; stroke-linejoin: miter"/>
   </g>
   <g id="patch_91">
    <path d="M 336.1536 307.584 
L 343.296 307.584 
L 343.296 307.584 
L 336.1536 307.584 
z
" clip-path="url(#pc7bec95704)" style="fill: #ff7f0e; fill-opacity: 0.75; stroke: #000000; stroke-width: 0.71424; stroke-linejoin: miter"/>
   </g>
   <g id="patch_92">
    <path d="M 343.296 307.584 
L 350.4384 307.584 
L 350.4384 307.584 
L 343.296 307.584 
z
" clip-path="url(#pc7bec95704)" style="fill: #ff7f0e; fill-opacity: 0.75; stroke: #000000; stroke-width: 0.71424; stroke-linejoin: miter"/>
   </g>
   <g id="patch_93">
    <path d="M 350.4384 307.584 
L 357.5808 307.584 
L 357.5808 307.584 
L 350.4384 307.584 
z
" clip-path="url(#pc7bec95704)" style="fill: #ff7f0e; fill-opacity: 0.75; stroke: #000000; stroke-width: 0.71424; stroke-linejoin: miter"/>
   </g>
   <g id="patch_94">
    <path d="M 357.5808 307.584 
L 364.7232 307.584 
L 364.7232 307.584 
L 357.5808 307.584 
z
" clip-path="url(#pc7bec95704)" style="fill: #ff7f0e; fill-opacity: 0.75; stroke: #000000; stroke-width: 0.71424; stroke-linejoin: miter"/>
   </g>
   <g id="patch_95">
    <path d="M 364.7232 307.584 
L 371.8656 307.584 
L 371.8656 307.584 
L 364.7232 307.584 
z
" clip-path="url(#pc7bec95704)" style="fill: #ff7f0e; fill-opacity: 0.75; stroke: #000000; stroke-width: 0.71424; stroke-linejoin: miter"/>
   </g>
   <g id="patch_96">
    <path d="M 371.8656 307.584 
L 379.008 307.584 
L 379.008 307.584 
L 371.8656 307.584 
z
" clip-path="url(#pc7bec95704)" style="fill: #ff7f0e; fill-opacity: 0.75; stroke: #000000; stroke-width: 0.71424; stroke-linejoin: miter"/>
   </g>
   <g id="patch_97">
    <path d="M 379.008 307.584 
L 386.1504 307.584 
L 386.1504 307.584 
L 379.008 307.584 
z
" clip-path="url(#pc7bec95704)" style="fill: #ff7f0e; fill-opacity: 0.75; stroke: #000000; stroke-width: 0.71424; stroke-linejoin: miter"/>
   </g>
   <g id="patch_98">
    <path d="M 386.1504 307.584 
L 393.2928 307.584 
L 393.2928 307.584 
L 386.1504 307.584 
z
" clip-path="url(#pc7bec95704)" style="fill: #ff7f0e; fill-opacity: 0.75; stroke: #000000; stroke-width: 0.71424; stroke-linejoin: miter"/>
   </g>
   <g id="patch_99">
    <path d="M 393.2928 307.584 
L 400.4352 307.584 
L 400.4352 307.584 
L 393.2928 307.584 
z
" clip-path="url(#pc7bec95704)" style="fill: #ff7f0e; fill-opacity: 0.75; stroke: #000000; stroke-width: 0.71424; stroke-linejoin: miter"/>
   </g>
   <g id="patch_100">
    <path d="M 400.4352 307.584 
L 407.5776 307.584 
L 407.5776 307.584 
L 400.4352 307.584 
z
" clip-path="url(#pc7bec95704)" style="fill: #ff7f0e; fill-opacity: 0.75; stroke: #000000; stroke-width: 0.71424; stroke-linejoin: miter"/>
   </g>
   <g id="matplotlib.axis_1">
    <g id="xtick_1">
     <g id="line2d_1">
      <defs>
       <path id="ma45bdb4e81" d="M 0 0 
L 0 3.5 
" style="stroke: #000000; stroke-width: 0.8"/>
      </defs>
      <g>
       <use xlink:href="#ma45bdb4e81" x="57.6" y="307.584" style="stroke: #000000; stroke-width: 0.8"/>
      </g>
     </g>
     <g id="text_1">
      <!-- 0 -->
      <g transform="translate(54.41875 322.182437) scale(0.1 -0.1)">
       <defs>
        <path id="DejaVuSans-30" d="M 2034 4250 
Q 1547 4250 1301 3770 
Q 1056 3291 1056 2328 
Q 1056 1369 1301 889 
Q 1547 409 2034 409 
Q 2525 409 2770 889 
Q 3016 1369 3016 2328 
Q 3016 3291 2770 3770 
Q 2525 4250 2034 4250 
z
M 2034 4750 
Q 2819 4750 3233 4129 
Q 3647 3509 3647 2328 
Q 3647 1150 3233 529 
Q 2819 -91 2034 -91 
Q 1250 -91 836 529 
Q 422 1150 422 2328 
Q 422 3509 836 4129 
Q 1250 4750 2034 4750 
z
" transform="scale(0.015625)"/>
       </defs>
       <use xlink:href="#DejaVuSans-30"/>
      </g>
     </g>
    </g>
    <g id="xtick_2">
     <g id="line2d_2">
      <g>
       <use xlink:href="#ma45bdb4e81" x="129.024" y="307.584" style="stroke: #000000; stroke-width: 0.8"/>
      </g>
     </g>
     <g id="text_2">
      <!-- 100 -->
      <g transform="translate(119.48025 322.182437) scale(0.1 -0.1)">
       <defs>
        <path id="DejaVuSans-31" d="M 794 531 
L 1825 531 
L 1825 4091 
L 703 3866 
L 703 4441 
L 1819 4666 
L 2450 4666 
L 2450 531 
L 3481 531 
L 3481 0 
L 794 0 
L 794 531 
z
" transform="scale(0.015625)"/>
       </defs>
       <use xlink:href="#DejaVuSans-31"/>
       <use xlink:href="#DejaVuSans-30" x="63.623047"/>
       <use xlink:href="#DejaVuSans-30" x="127.246094"/>
      </g>
     </g>
    </g>
    <g id="xtick_3">
     <g id="line2d_3">
      <g>
       <use xlink:href="#ma45bdb4e81" x="200.448" y="307.584" style="stroke: #000000; stroke-width: 0.8"/>
      </g>
     </g>
     <g id="text_3">
      <!-- 200 -->
      <g transform="translate(190.90425 322.182437) scale(0.1 -0.1)">
       <defs>
        <path id="DejaVuSans-32" d="M 1228 531 
L 3431 531 
L 3431 0 
L 469 0 
L 469 531 
Q 828 903 1448 1529 
Q 2069 2156 2228 2338 
Q 2531 2678 2651 2914 
Q 2772 3150 2772 3378 
Q 2772 3750 2511 3984 
Q 2250 4219 1831 4219 
Q 1534 4219 1204 4116 
Q 875 4013 500 3803 
L 500 4441 
Q 881 4594 1212 4672 
Q 1544 4750 1819 4750 
Q 2544 4750 2975 4387 
Q 3406 4025 3406 3419 
Q 3406 3131 3298 2873 
Q 3191 2616 2906 2266 
Q 2828 2175 2409 1742 
Q 1991 1309 1228 531 
z
" transform="scale(0.015625)"/>
       </defs>
       <use xlink:href="#DejaVuSans-32"/>
       <use xlink:href="#DejaVuSans-30" x="63.623047"/>
       <use xlink:href="#DejaVuSans-30" x="127.246094"/>
      </g>
     </g>
    </g>
    <g id="xtick_4">
     <g id="line2d_4">
      <g>
       <use xlink:href="#ma45bdb4e81" x="271.872" y="307.584" style="stroke: #000000; stroke-width: 0.8"/>
      </g>
     </g>
     <g id="text_4">
      <!-- 300 -->
      <g transform="translate(262.32825 322.182437) scale(0.1 -0.1)">
       <defs>
        <path id="DejaVuSans-33" d="M 2597 2516 
Q 3050 2419 3304 2112 
Q 3559 1806 3559 1356 
Q 3559 666 3084 287 
Q 2609 -91 1734 -91 
Q 1441 -91 1130 -33 
Q 819 25 488 141 
L 488 750 
Q 750 597 1062 519 
Q 1375 441 1716 441 
Q 2309 441 2620 675 
Q 2931 909 2931 1356 
Q 2931 1769 2642 2001 
Q 2353 2234 1838 2234 
L 1294 2234 
L 1294 2753 
L 1863 2753 
Q 2328 2753 2575 2939 
Q 2822 3125 2822 3475 
Q 2822 3834 2567 4026 
Q 2313 4219 1838 4219 
Q 1578 4219 1281 4162 
Q 984 4106 628 3988 
L 628 4550 
Q 988 4650 1302 4700 
Q 1616 4750 1894 4750 
Q 2613 4750 3031 4423 
Q 3450 4097 3450 3541 
Q 3450 3153 3228 2886 
Q 3006 2619 2597 2516 
z
" transform="scale(0.015625)"/>
       </defs>
       <use xlink:href="#DejaVuSans-33"/>
       <use xlink:href="#DejaVuSans-30" x="63.623047"/>
       <use xlink:href="#DejaVuSans-30" x="127.246094"/>
      </g>
     </g>
    </g>
    <g id="xtick_5">
     <g id="line2d_5">
      <g>
       <use xlink:href="#ma45bdb4e81" x="343.296" y="307.584" style="stroke: #000000; stroke-width: 0.8"/>
      </g>
     </g>
     <g id="text_5">
      <!-- 400 -->
      <g transform="translate(333.75225 322.182437) scale(0.1 -0.1)">
       <defs>
        <path id="DejaVuSans-34" d="M 2419 4116 
L 825 1625 
L 2419 1625 
L 2419 4116 
z
M 2253 4666 
L 3047 4666 
L 3047 1625 
L 3713 1625 
L 3713 1100 
L 3047 1100 
L 3047 0 
L 2419 0 
L 2419 1100 
L 313 1100 
L 313 1709 
L 2253 4666 
z
" transform="scale(0.015625)"/>
       </defs>
       <use xlink:href="#DejaVuSans-34"/>
       <use xlink:href="#DejaVuSans-30" x="63.623047"/>
       <use xlink:href="#DejaVuSans-30" x="127.246094"/>
      </g>
     </g>
    </g>
    <g id="xtick_6">
     <g id="line2d_6">
      <g>
       <use xlink:href="#ma45bdb4e81" x="414.72" y="307.584" style="stroke: #000000; stroke-width: 0.8"/>
      </g>
     </g>
     <g id="text_6">
      <!-- 500 -->
      <g transform="translate(405.17625 322.182437) scale(0.1 -0.1)">
       <defs>
        <path id="DejaVuSans-35" d="M 691 4666 
L 3169 4666 
L 3169 4134 
L 1269 4134 
L 1269 2991 
Q 1406 3038 1543 3061 
Q 1681 3084 1819 3084 
Q 2600 3084 3056 2656 
Q 3513 2228 3513 1497 
Q 3513 744 3044 326 
Q 2575 -91 1722 -91 
Q 1428 -91 1123 -41 
Q 819 9 494 109 
L 494 744 
Q 775 591 1075 516 
Q 1375 441 1709 441 
Q 2250 441 2565 725 
Q 2881 1009 2881 1497 
Q 2881 1984 2565 2268 
Q 2250 2553 1709 2553 
Q 1456 2553 1204 2497 
Q 953 2441 691 2322 
L 691 4666 
z
" transform="scale(0.015625)"/>
       </defs>
       <use xlink:href="#DejaVuSans-35"/>
       <use xlink:href="#DejaVuSans-30" x="63.623047"/>
       <use xlink:href="#DejaVuSans-30" x="127.246094"/>
      </g>
     </g>
    </g>
    <g id="text_7">
     <!-- variants -->
     <g transform="translate(215.894375 335.860562) scale(0.1 -0.1)">
      <defs>
       <path id="DejaVuSans-76" d="M 191 3500 
L 800 3500 
L 1894 563 
L 2988 3500 
L 3597 3500 
L 2284 0 
L 1503 0 
L 191 3500 
z
" transform="scale(0.015625)"/>
       <path id="DejaVuSans-61" d="M 2194 1759 
Q 1497 1759 1228 1600 
Q 959 1441 959 1056 
Q 959 750 1161 570 
Q 1363 391 1709 391 
Q 2188 391 2477 730 
Q 2766 1069 2766 1631 
L 2766 1759 
L 2194 1759 
z
M 3341 1997 
L 3341 0 
L 2766 0 
L 2766 531 
Q 2569 213 2275 61 
Q 1981 -91 1556 -91 
Q 1019 -91 701 211 
Q 384 513 384 1019 
Q 384 1609 779 1909 
Q 1175 2209 1959 2209 
L 2766 2209 
L 2766 2266 
Q 2766 2663 2505 2880 
Q 2244 3097 1772 3097 
Q 1472 3097 1187 3025 
Q 903 2953 641 2809 
L 641 3341 
Q 956 3463 1253 3523 
Q 1550 3584 1831 3584 
Q 2591 3584 2966 3190 
Q 3341 2797 3341 1997 
z
" transform="scale(0.015625)"/>
       <path id="DejaVuSans-72" d="M 2631 2963 
Q 2534 3019 2420 3045 
Q 2306 3072 2169 3072 
Q 1681 3072 1420 2755 
Q 1159 2438 1159 1844 
L 1159 0 
L 581 0 
L 581 3500 
L 1159 3500 
L 1159 2956 
Q 1341 3275 1631 3429 
Q 1922 3584 2338 3584 
Q 2397 3584 2469 3576 
Q 2541 3569 2628 3553 
L 2631 2963 
z
" transform="scale(0.015625)"/>
       <path id="DejaVuSans-69" d="M 603 3500 
L 1178 3500 
L 1178 0 
L 603 0 
L 603 3500 
z
M 603 4863 
L 1178 4863 
L 1178 4134 
L 603 4134 
L 603 4863 
z
" transform="scale(0.015625)"/>
       <path id="DejaVuSans-6e" d="M 3513 2113 
L 3513 0 
L 2938 0 
L 2938 2094 
Q 2938 2591 2744 2837 
Q 2550 3084 2163 3084 
Q 1697 3084 1428 2787 
Q 1159 2491 1159 1978 
L 1159 0 
L 581 0 
L 581 3500 
L 1159 3500 
L 1159 2956 
Q 1366 3272 1645 3428 
Q 1925 3584 2291 3584 
Q 2894 3584 3203 3211 
Q 3513 2838 3513 2113 
z
" transform="scale(0.015625)"/>
       <path id="DejaVuSans-74" d="M 1172 4494 
L 1172 3500 
L 2356 3500 
L 2356 3053 
L 1172 3053 
L 1172 1153 
Q 1172 725 1289 603 
Q 1406 481 1766 481 
L 2356 481 
L 2356 0 
L 1766 0 
Q 1100 0 847 248 
Q 594 497 594 1153 
L 594 3053 
L 172 3053 
L 172 3500 
L 594 3500 
L 594 4494 
L 1172 4494 
z
" transform="scale(0.015625)"/>
       <path id="DejaVuSans-73" d="M 2834 3397 
L 2834 2853 
Q 2591 2978 2328 3040 
Q 2066 3103 1784 3103 
Q 1356 3103 1142 2972 
Q 928 2841 928 2578 
Q 928 2378 1081 2264 
Q 1234 2150 1697 2047 
L 1894 2003 
Q 2506 1872 2764 1633 
Q 3022 1394 3022 966 
Q 3022 478 2636 193 
Q 2250 -91 1575 -91 
Q 1294 -91 989 -36 
Q 684 19 347 128 
L 347 722 
Q 666 556 975 473 
Q 1284 391 1588 391 
Q 1994 391 2212 530 
Q 2431 669 2431 922 
Q 2431 1156 2273 1281 
Q 2116 1406 1581 1522 
L 1381 1569 
Q 847 1681 609 1914 
Q 372 2147 372 2553 
Q 372 3047 722 3315 
Q 1072 3584 1716 3584 
Q 2034 3584 2315 3537 
Q 2597 3491 2834 3397 
z
" transform="scale(0.015625)"/>
      </defs>
      <use xlink:href="#DejaVuSans-76"/>
      <use xlink:href="#DejaVuSans-61" x="59.179688"/>
      <use xlink:href="#DejaVuSans-72" x="120.458984"/>
      <use xlink:href="#DejaVuSans-69" x="161.572266"/>
      <use xlink:href="#DejaVuSans-61" x="189.355469"/>
      <use xlink:href="#DejaVuSans-6e" x="250.634766"/>
      <use xlink:href="#DejaVuSans-74" x="314.013672"/>
      <use xlink:href="#DejaVuSans-73" x="353.222656"/>
     </g>
    </g>
   </g>
   <g id="matplotlib.axis_2">
    <g id="ytick_1">
     <g id="line2d_7">
      <defs>
       <path id="m0142c2b7ef" d="M 0 0 
L -3.5 0 
" style="stroke: #000000; stroke-width: 0.8"/>
      </defs>
      <g>
       <use xlink:href="#m0142c2b7ef" x="57.6" y="307.584" style="stroke: #000000; stroke-width: 0.8"/>
      </g>
     </g>
     <g id="text_8">
      <!-- 0 -->
      <g transform="translate(44.2375 311.383219) scale(0.1 -0.1)">
       <use xlink:href="#DejaVuSans-30"/>
      </g>
     </g>
    </g>
    <g id="ytick_2">
     <g id="line2d_8">
      <g>
       <use xlink:href="#m0142c2b7ef" x="57.6" y="253.534096" style="stroke: #000000; stroke-width: 0.8"/>
      </g>
     </g>
     <g id="text_9">
      <!-- 1000 -->
      <g transform="translate(25.15 257.333315) scale(0.1 -0.1)">
       <use xlink:href="#DejaVuSans-31"/>
       <use xlink:href="#DejaVuSans-30" x="63.623047"/>
       <use xlink:href="#DejaVuSans-30" x="127.246094"/>
       <use xlink:href="#DejaVuSans-30" x="190.869141"/>
      </g>
     </g>
    </g>
    <g id="ytick_3">
     <g id="line2d_9">
      <g>
       <use xlink:href="#m0142c2b7ef" x="57.6" y="199.484192" style="stroke: #000000; stroke-width: 0.8"/>
      </g>
     </g>
     <g id="text_10">
      <!-- 2000 -->
      <g transform="translate(25.15 203.283411) scale(0.1 -0.1)">
       <use xlink:href="#DejaVuSans-32"/>
       <use xlink:href="#DejaVuSans-30" x="63.623047"/>
       <use xlink:href="#DejaVuSans-30" x="127.246094"/>
       <use xlink:href="#DejaVuSans-30" x="190.869141"/>
      </g>
     </g>
    </g>
    <g id="ytick_4">
     <g id="line2d_10">
      <g>
       <use xlink:href="#m0142c2b7ef" x="57.6" y="145.434288" style="stroke: #000000; stroke-width: 0.8"/>
      </g>
     </g>
     <g id="text_11">
      <!-- 3000 -->
      <g transform="translate(25.15 149.233507) scale(0.1 -0.1)">
       <use xlink:href="#DejaVuSans-33"/>
       <use xlink:href="#DejaVuSans-30" x="63.623047"/>
       <use xlink:href="#DejaVuSans-30" x="127.246094"/>
       <use xlink:href="#DejaVuSans-30" x="190.869141"/>
      </g>
     </g>
    </g>
    <g id="ytick_5">
     <g id="line2d_11">
      <g>
       <use xlink:href="#m0142c2b7ef" x="57.6" y="91.384384" style="stroke: #000000; stroke-width: 0.8"/>
      </g>
     </g>
     <g id="text_12">
      <!-- 4000 -->
      <g transform="translate(25.15 95.183603) scale(0.1 -0.1)">
       <use xlink:href="#DejaVuSans-34"/>
       <use xlink:href="#DejaVuSans-30" x="63.623047"/>
       <use xlink:href="#DejaVuSans-30" x="127.246094"/>
       <use xlink:href="#DejaVuSans-30" x="190.869141"/>
      </g>
     </g>
    </g>
    <g id="text_13">
     <!-- number of barcodes -->
     <g transform="translate(19.070312 224.885031) rotate(-90) scale(0.1 -0.1)">
      <defs>
       <path id="DejaVuSans-75" d="M 544 1381 
L 544 3500 
L 1119 3500 
L 1119 1403 
Q 1119 906 1312 657 
Q 1506 409 1894 409 
Q 2359 409 2629 706 
Q 2900 1003 2900 1516 
L 2900 3500 
L 3475 3500 
L 3475 0 
L 2900 0 
L 2900 538 
Q 2691 219 2414 64 
Q 2138 -91 1772 -91 
Q 1169 -91 856 284 
Q 544 659 544 1381 
z
M 1991 3584 
L 1991 3584 
z
" transform="scale(0.015625)"/>
       <path id="DejaVuSans-6d" d="M 3328 2828 
Q 3544 3216 3844 3400 
Q 4144 3584 4550 3584 
Q 5097 3584 5394 3201 
Q 5691 2819 5691 2113 
L 5691 0 
L 5113 0 
L 5113 2094 
Q 5113 2597 4934 2840 
Q 4756 3084 4391 3084 
Q 3944 3084 3684 2787 
Q 3425 2491 3425 1978 
L 3425 0 
L 2847 0 
L 2847 2094 
Q 2847 2600 2669 2842 
Q 2491 3084 2119 3084 
Q 1678 3084 1418 2786 
Q 1159 2488 1159 1978 
L 1159 0 
L 581 0 
L 581 3500 
L 1159 3500 
L 1159 2956 
Q 1356 3278 1631 3431 
Q 1906 3584 2284 3584 
Q 2666 3584 2933 3390 
Q 3200 3197 3328 2828 
z
" transform="scale(0.015625)"/>
       <path id="DejaVuSans-62" d="M 3116 1747 
Q 3116 2381 2855 2742 
Q 2594 3103 2138 3103 
Q 1681 3103 1420 2742 
Q 1159 2381 1159 1747 
Q 1159 1113 1420 752 
Q 1681 391 2138 391 
Q 2594 391 2855 752 
Q 3116 1113 3116 1747 
z
M 1159 2969 
Q 1341 3281 1617 3432 
Q 1894 3584 2278 3584 
Q 2916 3584 3314 3078 
Q 3713 2572 3713 1747 
Q 3713 922 3314 415 
Q 2916 -91 2278 -91 
Q 1894 -91 1617 61 
Q 1341 213 1159 525 
L 1159 0 
L 581 0 
L 581 4863 
L 1159 4863 
L 1159 2969 
z
" transform="scale(0.015625)"/>
       <path id="DejaVuSans-65" d="M 3597 1894 
L 3597 1613 
L 953 1613 
Q 991 1019 1311 708 
Q 1631 397 2203 397 
Q 2534 397 2845 478 
Q 3156 559 3463 722 
L 3463 178 
Q 3153 47 2828 -22 
Q 2503 -91 2169 -91 
Q 1331 -91 842 396 
Q 353 884 353 1716 
Q 353 2575 817 3079 
Q 1281 3584 2069 3584 
Q 2775 3584 3186 3129 
Q 3597 2675 3597 1894 
z
M 3022 2063 
Q 3016 2534 2758 2815 
Q 2500 3097 2075 3097 
Q 1594 3097 1305 2825 
Q 1016 2553 972 2059 
L 3022 2063 
z
" transform="scale(0.015625)"/>
       <path id="DejaVuSans-20" transform="scale(0.015625)"/>
       <path id="DejaVuSans-6f" d="M 1959 3097 
Q 1497 3097 1228 2736 
Q 959 2375 959 1747 
Q 959 1119 1226 758 
Q 1494 397 1959 397 
Q 2419 397 2687 759 
Q 2956 1122 2956 1747 
Q 2956 2369 2687 2733 
Q 2419 3097 1959 3097 
z
M 1959 3584 
Q 2709 3584 3137 3096 
Q 3566 2609 3566 1747 
Q 3566 888 3137 398 
Q 2709 -91 1959 -91 
Q 1206 -91 779 398 
Q 353 888 353 1747 
Q 353 2609 779 3096 
Q 1206 3584 1959 3584 
z
" transform="scale(0.015625)"/>
       <path id="DejaVuSans-66" d="M 2375 4863 
L 2375 4384 
L 1825 4384 
Q 1516 4384 1395 4259 
Q 1275 4134 1275 3809 
L 1275 3500 
L 2222 3500 
L 2222 3053 
L 1275 3053 
L 1275 0 
L 697 0 
L 697 3053 
L 147 3053 
L 147 3500 
L 697 3500 
L 697 3744 
Q 697 4328 969 4595 
Q 1241 4863 1831 4863 
L 2375 4863 
z
" transform="scale(0.015625)"/>
       <path id="DejaVuSans-63" d="M 3122 3366 
L 3122 2828 
Q 2878 2963 2633 3030 
Q 2388 3097 2138 3097 
Q 1578 3097 1268 2742 
Q 959 2388 959 1747 
Q 959 1106 1268 751 
Q 1578 397 2138 397 
Q 2388 397 2633 464 
Q 2878 531 3122 666 
L 3122 134 
Q 2881 22 2623 -34 
Q 2366 -91 2075 -91 
Q 1284 -91 818 406 
Q 353 903 353 1747 
Q 353 2603 823 3093 
Q 1294 3584 2113 3584 
Q 2378 3584 2631 3529 
Q 2884 3475 3122 3366 
z
" transform="scale(0.015625)"/>
       <path id="DejaVuSans-64" d="M 2906 2969 
L 2906 4863 
L 3481 4863 
L 3481 0 
L 2906 0 
L 2906 525 
Q 2725 213 2448 61 
Q 2172 -91 1784 -91 
Q 1150 -91 751 415 
Q 353 922 353 1747 
Q 353 2572 751 3078 
Q 1150 3584 1784 3584 
Q 2172 3584 2448 3432 
Q 2725 3281 2906 2969 
z
M 947 1747 
Q 947 1113 1208 752 
Q 1469 391 1925 391 
Q 2381 391 2643 752 
Q 2906 1113 2906 1747 
Q 2906 2381 2643 2742 
Q 2381 3103 1925 3103 
Q 1469 3103 1208 2742 
Q 947 2381 947 1747 
z
" transform="scale(0.015625)"/>
      </defs>
      <use xlink:href="#DejaVuSans-6e"/>
      <use xlink:href="#DejaVuSans-75" x="63.378906"/>
      <use xlink:href="#DejaVuSans-6d" x="126.757812"/>
      <use xlink:href="#DejaVuSans-62" x="224.169922"/>
      <use xlink:href="#DejaVuSans-65" x="287.646484"/>
      <use xlink:href="#DejaVuSans-72" x="349.169922"/>
      <use xlink:href="#DejaVuSans-20" x="390.283203"/>
      <use xlink:href="#DejaVuSans-6f" x="422.070312"/>
      <use xlink:href="#DejaVuSans-66" x="483.251953"/>
      <use xlink:href="#DejaVuSans-20" x="518.457031"/>
      <use xlink:href="#DejaVuSans-62" x="550.244141"/>
      <use xlink:href="#DejaVuSans-61" x="613.720703"/>
      <use xlink:href="#DejaVuSans-72" x="675"/>
      <use xlink:href="#DejaVuSans-63" x="713.863281"/>
      <use xlink:href="#DejaVuSans-6f" x="768.84375"/>
      <use xlink:href="#DejaVuSans-64" x="830.025391"/>
      <use xlink:href="#DejaVuSans-65" x="893.501953"/>
      <use xlink:href="#DejaVuSans-73" x="955.025391"/>
     </g>
    </g>
   </g>
   <g id="patch_101">
    <path d="M 57.6 307.584 
L 57.6 41.472 
" style="fill: none; stroke: #000000; stroke-width: 0.8; stroke-linejoin: miter; stroke-linecap: square"/>
   </g>
   <g id="patch_102">
    <path d="M 414.72 307.584 
L 414.72 41.472 
" style="fill: none; stroke: #000000; stroke-width: 0.8; stroke-linejoin: miter; stroke-linecap: square"/>
   </g>
   <g id="patch_103">
    <path d="M 57.6 307.584 
L 414.72 307.584 
" style="fill: none; stroke: #000000; stroke-width: 0.8; stroke-linejoin: miter; stroke-linecap: square"/>
   </g>
   <g id="patch_104">
    <path d="M 57.6 41.472 
L 414.72 41.472 
" style="fill: none; stroke: #000000; stroke-width: 0.8; stroke-linejoin: miter; stroke-linecap: square"/>
   </g>
   <g id="legend_1">
    <g id="patch_105">
     <path d="M 356.012188 78.82825 
L 407.72 78.82825 
Q 409.72 78.82825 409.72 76.82825 
L 409.72 48.472 
Q 409.72 46.472 407.72 46.472 
L 356.012188 46.472 
Q 354.012188 46.472 354.012188 48.472 
L 354.012188 76.82825 
Q 354.012188 78.82825 356.012188 78.82825 
z
" style="fill: #ffffff; opacity: 0.8; stroke: #cccccc; stroke-linejoin: miter"/>
    </g>
    <g id="patch_106">
     <path d="M 358.012188 58.070437 
L 378.012188 58.070437 
L 378.012188 51.070437 
L 358.012188 51.070437 
z
" style="fill: #1f77b4; fill-opacity: 0.75; stroke: #000000; stroke-width: 0.66256; stroke-linejoin: miter"/>
    </g>
    <g id="text_14">
     <!-- C19 -->
     <g transform="translate(386.012188 58.070437) scale(0.1 -0.1)">
      <defs>
       <path id="DejaVuSans-43" d="M 4122 4306 
L 4122 3641 
Q 3803 3938 3442 4084 
Q 3081 4231 2675 4231 
Q 1875 4231 1450 3742 
Q 1025 3253 1025 2328 
Q 1025 1406 1450 917 
Q 1875 428 2675 428 
Q 3081 428 3442 575 
Q 3803 722 4122 1019 
L 4122 359 
Q 3791 134 3420 21 
Q 3050 -91 2638 -91 
Q 1578 -91 968 557 
Q 359 1206 359 2328 
Q 359 3453 968 4101 
Q 1578 4750 2638 4750 
Q 3056 4750 3426 4639 
Q 3797 4528 4122 4306 
z
" transform="scale(0.015625)"/>
       <path id="DejaVuSans-39" d="M 703 97 
L 703 672 
Q 941 559 1184 500 
Q 1428 441 1663 441 
Q 2288 441 2617 861 
Q 2947 1281 2994 2138 
Q 2813 1869 2534 1725 
Q 2256 1581 1919 1581 
Q 1219 1581 811 2004 
Q 403 2428 403 3163 
Q 403 3881 828 4315 
Q 1253 4750 1959 4750 
Q 2769 4750 3195 4129 
Q 3622 3509 3622 2328 
Q 3622 1225 3098 567 
Q 2575 -91 1691 -91 
Q 1453 -91 1209 -44 
Q 966 3 703 97 
z
M 1959 2075 
Q 2384 2075 2632 2365 
Q 2881 2656 2881 3163 
Q 2881 3666 2632 3958 
Q 2384 4250 1959 4250 
Q 1534 4250 1286 3958 
Q 1038 3666 1038 3163 
Q 1038 2656 1286 2365 
Q 1534 2075 1959 2075 
z
" transform="scale(0.015625)"/>
      </defs>
      <use xlink:href="#DejaVuSans-43"/>
      <use xlink:href="#DejaVuSans-31" x="69.824219"/>
      <use xlink:href="#DejaVuSans-39" x="133.447266"/>
     </g>
    </g>
    <g id="patch_107">
     <path d="M 358.012188 72.748562 
L 378.012188 72.748562 
L 378.012188 65.748562 
L 358.012188 65.748562 
z
" style="fill: #ff7f0e; fill-opacity: 0.75; stroke: #000000; stroke-width: 0.71424; stroke-linejoin: miter"/>
    </g>
    <g id="text_15">
     <!-- C9 -->
     <g transform="translate(386.012188 72.748562) scale(0.1 -0.1)">
      <use xlink:href="#DejaVuSans-43"/>
      <use xlink:href="#DejaVuSans-39" x="69.824219"/>
     </g>
    </g>
   </g>
  </g>
 </g>
 <defs>
  <clipPath id="pc7bec95704">
   <rect x="57.6" y="41.472" width="357.12" height="266.112"/>
  </clipPath>
 </defs>
</svg>
